<?xml version="1.0" encoding="UTF-8"?>
<!-- Created with Inkscape (http://www.inkscape.org/) -->
<svg width="2048" height="2048" enable-background="new" inkscape:version="0.92.3 (2405546, 2018-03-11)" sodipodi:docname="Elypia Logo by Nikky.svg" version="1.1" viewBox="0 0 2048 2048" xml:space="preserve" xmlns="http://www.w3.org/2000/svg" xmlns:cc="http://creativecommons.org/ns#" xmlns:dc="http://purl.org/dc/elements/1.1/" xmlns:inkscape="http://www.inkscape.org/namespaces/inkscape" xmlns:rdf="http://www.w3.org/1999/02/22-rdf-syntax-ns#" xmlns:sodipodi="http://sodipodi.sourceforge.net/DTD/sodipodi-0.dtd"><sodipodi:namedview bordercolor="#666666" borderopacity="1" gridtolerance="10" guidetolerance="10" inkscape:current-layer="svg22" inkscape:cx="750.2691" inkscape:cy="1154.4929" inkscape:pageopacity="0" inkscape:pageshadow="2" inkscape:window-height="1016" inkscape:window-maximized="1" inkscape:window-width="1873" inkscape:window-x="47" inkscape:window-y="1107" inkscape:zoom="0.32593203" objecttolerance="10" pagecolor="#ffffff" showgrid="false"/><metadata><rdf:RDF><cc:Work rdf:about=""><dc:format>image/svg+xml</dc:format><dc:type rdf:resource="http://purl.org/dc/dcmitype/StillImage"/><dc:title/><cc:license rdf:resource=""/></cc:Work></rdf:RDF></metadata><ellipse cx="1017.0833" cy="1024.7806" rx="897.42633" ry="891.29016" fill="#254958" stroke-width="1.03740144"/><path d="m138.96986 1024.3056c0.88787-488.56113 393.39016-884.83122 884.45784-885.28454 488.3745-0.45452 885.4046 392.21686 885.5779 884.72454 0.1745 492.1344-396.2434 885.4179-885.0179 885.2845-491.12102-0.1294-883.80454-396.1767-885.01784-884.7245m-138.96986-0.2231c1.2745948 563.666 453.41533 1023.8944 1024.1744 1023.9211 568.3058 0.025 1023.8011-457.3619 1023.7744-1024.0277-0.0253-566.54587-455.4019-1024.014431-1023.8677-1023.9211-571.09243 0.09013108-1022.88113 460.6551501-1024.0811 1024.0277" fill="#214e6a" stroke-width="1.33329999" inkscape:connector-curvature="0"/><path d="m590.25191 589.50313 596.58509 119.06636 283.2596-146.63634 12.5334 512.61385 65.173 214.3146-327.1251 228.101-86.4805 25.0674-240.63401-1.2534-221.83445-90.2404-189.2486-187.9953 116.55975-448.69545z" fill="#f2f2f2" stroke="#000" stroke-width=".99997503px" inkscape:connector-curvature="0"/><g transform="matrix(1.3333,0,0,-1.3333,0,2048)" fill="#17679a"><path d="m561.81 703.64c1.7964-9.1737 3.4374-17.334 4.9692-25.515 0.44175-2.3594 2.0467-3.1649 4.0274-3.8732 22.356-7.9906 44.679-16.077 67.07-23.968 2.4123-0.8505 4.1391-1.9939 5.633-4.0244 4.2591-5.7873 8.6893-11.45 13.086-17.135 1.2658-1.6368 2.6469-3.1835 3.9746-4.7723 0.37033 0.14405 0.74067 0.2875 1.111 0.43095 0.45196 20.027 0.90452 40.055 1.3631 60.344-33.954 6.232-67.176 12.539-101.24 18.513m312.49-78.841c0.40814-0.14586 0.81629-0.29111 1.2238-0.43576 1.2466 1.5149 2.5353 2.9975 3.7315 4.5508 4.5106 5.8551 8.9126 11.795 13.537 17.559 1.1692 1.4573 2.839 2.842 4.567 3.4716 18.002 6.5609 36.065 12.956 54.107 19.407 5.6264 2.0125 11.242 4.0532 17.024 6.139 1.9177 9.2331 4.1901 18.204 5.3083 28.212-34.126-6.283-67.389-12.408-100.89-18.577 0.47597-20.574 0.93633-40.45 1.3955-60.327m-35.147 146.43c3.1481-1.3499 5.9889-2.3228 8.5842-3.7435 3.4224-1.8721 6.6102-1.7928 10.28-0.551 13.818 4.6763 27.73 9.0722 41.613 13.553 10.459 3.3756 20.722 8.0339 31.449 9.7097 10.737 1.6782 21.941 0.36252 32.94 0.35832 0.60022-6e-4 1.2022-0.0396 1.7994-3e-3 1.5011 0.0918 2.9999 0.21728 5.2075 0.38234-1.0048 1.5588-1.5744 2.5563-2.2526 3.474-3.21 4.3419-6.4781 8.6407-9.6658 12.999-1.3967 1.9087-2.1914 4.3366-0.25089 5.9631 1.2598 1.0558 3.6259 1.2604 5.4223 1.0858 2.0845-0.20287 4.0886-1.2388 6.1276-1.9129-2.1242 2.8966-4.7321 4.9776-7.3478 7.0483-2.9795 2.3588-5.9937 4.6739-8.9372 7.0753-1.8685 1.5233-2.6037 3.5491-1.9267 5.9001 0.71666 2.4879 2.7052 3.3216 5.061 3.4482 1.596 0.0858 3.1997 0.0378 4.7993 0.0396 3.0683 4e-3 6.1354 2e-3 9.2025 2e-3 2.9134-0.2857 1.1128 0.91473 0.32172 1.4045-3.3444 2.0095-6.4925 4.5154-10.072 5.9271-8.1743 3.2232-16.543 5.9595-24.873 8.7733-1.6602 0.5606-3.5275 0.93573-5.2531 0.80128-10.764-0.8379-21.523-1.7508-32.258-2.881-2.0425-0.21488-4.3606-1.0558-5.8929-2.3732-16.224-13.957-32.344-28.035-48.389-42.198-1.3757-1.2142-2.6722-3.1913-2.8768-4.9464-1.111-9.5164-1.8673-19.075-2.8114-29.335m-273.8 20.681c-1.7232-1.755-1.7232-1.1548 0.53479-1.3541 1.9303 0 3.8606-8e-3 5.7915 1e-3 9.1977 0.0492 18.398 0.25389 27.592 0.0786 3.5305-0.0672 7.1882-0.54319 10.543-1.6074 22.848-7.25 45.623-14.73 68.45-22.051 2.0143-0.64583 4.4464-1.4027 6.3028-0.8421 4.1337 1.2478 8.0249 3.2982 12.294 5.1408-0.91833 9.3825-1.9441 18.304-2.5887 27.253-0.25029 3.4656-1.5318 5.8437-4.1529 8.0975-15.161 13.034-30.265 26.14-45.186 39.447-3.2112 2.8642-6.6228 4.1451-10.722 4.4656-9.5638 0.74787-19.114 1.6878-28.682 2.3582-2.1224 0.14885-4.411-0.16146-6.4331-0.8331-8.1527-2.7052-16.253-5.5742-24.326-8.508-3.8612-1.4027-7.0759-3.8444-9.9918-6.9193 4.555-0.58041 8.8958-0.5624 13.236-0.58761 2.5425-0.0144 4.8359-0.59421 5.7284-3.366 0.8457-2.6271-0.17526-4.6985-2.228-6.3268-4.0724-3.2298-8.1863-6.4085-12.249-9.6508-1.3877-1.1074-2.674-2.342-4.0064-3.5178 2.7982 0.0906 5.0052 1.1992 7.3076 1.4561 1.548 0.17286 3.8546-0.38834 4.6763-1.4819 0.81209-1.081 0.5462-3.3516 0.0828-4.8995-0.43395-1.4507-1.7214-2.6566-2.6758-3.938-3.0881-4.1463-6.196-8.2776-9.2967-12.415m393.49 222.50998c31.428-22.07798 62.27098-43.74498 93.38098-65.59898 0.6236 1.5276 1.1116 2.4081 1.3498 3.3516 5.432 21.503 10.873 43.004 16.189 64.53398 0.506 2.0503 0.5276 4.3503 0.2137 6.4505-2.5053 16.801-5.1312 33.584-7.7752 50.365-0.2005 1.2689-0.8169 2.4729-1.3925 4.1511-34.011-21.099-67.60798-41.94-101.96998-63.254m-475.24-65.72898c31.314 22 62.108 43.634 93.566 65.73498-34.566 21.435-68.28 42.342-102.35 63.473-0.37693-1.6236-0.59841-2.3715-0.72026-3.135-2.7148-16.968-5.5106-33.925-8.0339-50.922-0.42435-2.8618-0.0798-6.0009 0.61522-8.8393 4.8887-19.98698 9.9558-39.93198 14.99-59.88298 0.47357-1.8769 1.1134-3.7117 1.9375-6.4283m559.59002-194.96c-21.179-3.8978-41.96-8.1407-62.84502-13.506 3.3114-7.8298 6.3869-14.769 9.1683-21.823 1.3277-3.3678 3.3696-5.5226 6.678-7.1395 19.03802-9.3027 37.96602-18.83 56.93002-28.285 1.4303-0.71305 2.8984-1.3697 4.2531-2.2076 2.1374-1.3223 5.6258-6.4553 0.6368-5.5226-5.7806 0.92853-11.55 1.8547-17.865 2.869 0.566-2.5869 0.8967-4.3293 1.3306-6.0466 4.2592-16.856 8.5249-33.712 12.821-50.558 0.6446-2.5275 1.7298-5.0514-1.3187-7.25-1.5083 0.63442-3.1295 1.3169-5.1498 2.1668 0.1092-2.1992 0.12-3.7952 0.2773-5.3761 1.3523-13.527 2.7514-27.049 4.0863-40.578 0.2617-2.6488 1.3048-5.5256-1.6812-7.9474-2.2088 1.2965-4.3576 2.5563-6.5466 3.8408-3.3756-8.9876-18.472-75.543-17.949-80.807 3.719 10.469 12.097 15.259 19.258 21.176 15.416 12.74 31.029 25.244 46.382 38.061 3.3078 2.7616 6.3191 6.1336 8.6659 9.7457 10.24 15.76 19.9 31.903 30.379 47.499 4.0425 6.0172 4.1247 11.879 3.2874 18.307-1.3967-1.3427-2.6031-2.5029-3.809-3.6619-1.1212 1.4777-2.3294 2.8996-3.3287 4.456-0.524 0.81629-0.6831 1.8679-1.0072 2.8132-6.4163 18.716-12.989 37.381-19.161 56.178-2.0318 6.1858-2.8673 10.988-10.67 12.188-1.2149 0.42495-2.4009 0-3.1313 3.2183 6.4691 0.65064 12.558-3.1859 19.448-2.0983-18.197 12.155-36.395 24.31-55.252 36.905 3.2424 3.7417 7.8886 5.1174 11.772 7.5135 4.1595 2.5659 8.4684 4.8869 12.713 7.3148-2.8984 0.97834-5.4127 0.8433-7.9252 0.68784-11.576-0.71665-23.15-1.4675-34.73-2.1206-1.4051-0.0786-2.839 0.36252-4.2597 0.5624-0.1645 0.46276-0.3277 0.92613-0.4916 1.3889 3.0113 2.6794 6.0226 5.3587 9.0345 8.0381m-599.33002-59.149c-2.0858-1.6614-2.4891-1.3121-4.4866-2.2616-4.6048-1.4513-7.4216-4.3498-8.9648-9.0278-6.6948-20.302-13.785-40.473-20.736-60.691-0.45437-1.3217-0.80609-2.7028-1.4423-3.9338-1.3871-2.6842-2.5329-2.6541-4.7105-4e-3 -0.34632 0.42075-0.63322 0.89012-1.0438 1.4735-1.9909-10.148-1.9957-10.151 3.0509-18.131 10.259-16.22 20.462-32.476 30.849-48.613 1.8012-2.7988 4.1067-5.4349 6.6684-7.5543 17.562-14.532 35.221-28.949 52.927-43.305 5.3005-4.2975 10.684-8.4222 13.266-15.088 0.25329-0.65543 0.98075-1.1266 2.3984-2.6824-6.5459 27.996-12.798 54.737-19.136 81.844-2.9302-1.6116-5.1967-2.8582-8.7673-4.8215 0.24369 19.356 3.4932 37.009 4.4896 55.104-1.9495-1.0096-3.6175-1.8727-5.2891-2.7376-3.1379 2.8144-1.6548 5.7843-0.95674 8.5626 4.2825 17.052 8.6479 34.084 12.955 51.129 0.30971 1.2256 0.38114 2.5113 0.61582 4.1343-1.755-0.15785-2.938-0.17586-4.0868-0.38293-3.7351-0.67344-7.4378-1.5792-11.197-2.0275-1.0588-0.12604-5.2357-0.87571-5.4776-0.0546-0.27909 0.94714 2.8402 4.2891 3.7141 5.0952 1.1332 1.045 2.7556 1.5702 4.1853 2.282 19.139 9.5404 38.304 19.029 57.389 28.676 1.9993 1.0102 4.2465 2.6109 5.1498 4.5202 3.6631 7.7428 6.8466 15.712 10.524 24.341-21.162 4.8365-41.86 9.5674-63.076 14.417 2.1302-4.6595 7.5747-5.4535 9.1034-10.899-16.034-0.5504-31.417 2.1188-46.954 1.5113 4.0274-2.899 8.2662-5.0832 12.302-7.5945 3.8828-2.4159 8.5957-3.7183 11.777-7.5561-18.885-12.598-37.178-24.801-55.471-37.004 0.19747-0.40215 0.39554-0.80369 0.59301-1.2052 3.2742 0.72446 6.5171 1.7448 9.8309 2.0899 3.2646 0.34032 6.1186 1.1338 10.005 0.39434m123.58-199.93c0.53239-2.0071 0.75927-3.3246 1.225-4.5514 7.5891-19.989 15.264-39.947 22.762-59.97 1.0762-2.875 2.8732-4.5328 5.4487-5.9415 19.291-10.551 38.58-21.111 57.742-31.894 4.3546-2.4501 8.7565-3.4548 13.669-3.6115 18.786-0.59961 37.561-1.5191 56.346-2.1392 17.583-0.58101 35.189-1.6236 52.758-1.2364 30.981 0.68124 61.944 2.2376 92.906 3.6133 3.0653 0.13684 6.3689 1.015 9.0626 2.4711 19.868 10.746 39.584 21.773 59.416 32.584 2.9837 1.6266 4.8731 3.6769 6.0814 6.9054 7.3544 19.651 14.904 39.228 22.368 58.838 0.54139 1.4213 0.92673 2.902 1.7628 5.5568-2.9266-1.3637-4.7711-2.4591-6.7632-3.0695-1.3481-0.41295-2.905-0.14525-4.3684-0.18187 0 1.3097-0.31451 2.7244 0.072 3.9092 0.8643 2.6511 2.0923 5.1834 3.1487 7.7734 1.557 3.8198 3.0923 7.6479 4.6372 11.472-2.1908-0.70825-3.5923-1.9897-5.0598-3.1907-1.4261-1.1668-2.9194-2.2514-5.5886-4.2939-0.45316 5.4523-0.77848 9.3609-1.1572 13.911-1.5546-2.8324-2.7244-4.9644-4.5736-8.3346-1.7802 2.9368-3.0065 4.6324-3.9002 6.4883-6.9361 14.405-13.843 28.827-20.669 43.286-1.228 2.6013-2.7916 4.6462-5.2369 6.2968-17.399 11.746-34.752 23.562-52.01 35.515-2.7232 1.8859-5.2615 4.2951-7.256 6.9373-16.987 22.502-33.823 45.116-50.722 67.684-1.1146 1.4891-2.3666 2.8738-4.2537 5.151-0.91712-4.0658-1.5966-6.9355-2.2046-9.8189-0.42075-1.9951-0.58221-4.6967-2.9831-5.8971-3.0011 0.60022-2.9999 3.6913-3.7171 5.4139-0.5582 1.3391-1.0294 2.7142-1.7562 4.6511-2.5653-5.1798-4.7453-9.5806-7.1342-14.405-6.6708 4.474-9.2241 11.687-15.063 16.617-1.4963-5.8677 0.17886-11.659-2.4285-16.593-0.51198-1.0858-1.3865-0.16566-1.5396 0.0234-5.5808 6.897-6.0315 16.135-10.73 24-0.60501-1.0132-1.1242-1.611-1.3511-2.3048-1.5558-4.7471-2.9524-9.5488-4.624-14.252-0.48497-1.3643-1.6998-2.4687-2.5797-3.6919-1.3583 1.0048-3.1277 1.7442-3.983 3.0731-1.4663 2.2778-2.3612 4.923-3.9098 8.3238-0.8469-2.7598-1.1668-4.5628-1.9537-6.1312-0.64523-1.2851-1.6524-3.5233-2.8528-4.7237-2.4009 1.8006-2.8858 2.9717-3.3042 4.9038-0.70465 3.2562-1.5576 6.4805-2.6007 10.752-1.9075-2.3582-3.294-3.9638-4.5628-5.6576-16.774-22.411-33.508-44.853-50.333-67.226-1.6482-2.192-3.5857-4.3432-5.8209-5.8887-17.433-12.051-34.937-24-52.512-35.844-2.9398-1.9807-4.971-4.3275-6.4703-7.5453-6.669-14.311-13.523-28.537-20.378-42.76-0.88832-1.8433-2.1758-3.4938-3.8852-6.19-1.7682 3.0101-2.9032 4.9434-4.1163 7.0093-1.9999-3.6529 0.60862-8.1707-2.842-11.942-3.0041 2.4363-5.8185 4.7189-9.1749 7.4402 1.6236-8.8748 7.8154-15.664 7.921-25.384-4.1037 1.5251-7.1395 2.653-10.957 4.0706m578.56003 261.12c31.702 4.1631 63.079 9.439 94.608 13.514 0.2833-0.46397 0.5666-0.92853 0.8499-1.3931-1.0462-1.4939-1.9603-3.1031-3.1565-4.465-18.094-20.587-36.228-41.139-54.339-61.71-1.2682-1.4405-2.4327-2.9711-4.2501-5.202 2.4543-0.21608 3.9524-0.42675 5.4547-0.46637 18.399-0.49097 36.798-0.92973 55.196-1.4633 2.2784-0.0654 4.5436-0.60201 7.6221-1.0336-2.6217-6.0706-6.9096-9.7841-10.205-14.155-3.3708-4.4698-7.0027-8.7427-10.52-13.103-3.5166-4.3594-7.0339-8.7193-10.55-13.08-3.5149-4.3606-7.0273-8.7247-10.542-13.085-3.516-4.3612-7.0375-8.7175-10.548-13.082-3.4915-4.339-6.9721-8.6851-11.237-14.001 2.5395 0.32772 3.9878 0.37754 5.3665 0.71306 14.762 3.5887 29.512 7.2242 44.266 10.845 1.9417 0.47657 3.866 1.1224 5.8371 1.3397 1.0372 0.11404 2.159-0.52938 3.2424-0.83129-0.3433-1.2142-0.3686-2.689-1.1014-3.5869-1.2479-1.5275-2.9339-2.6992-4.4476-4.007-73.557-63.584-147.15-127.13-220.6-190.84-4.6667-4.0466-9.5734-6.744-15.412-8.5843-43.08503-13.584-86.09303-27.412-129.16003-41.071-2.8006-0.88832-5.8323-1.2983-8.7799-1.4309-25.779-1.1572-51.576-1.9513-77.341-3.3534-22.046-1.1992-43.988 0.70825-65.971 1.3583-16.195 0.47897-32.382 1.2592-48.568 2.0095-2.5527 0.11824-5.1792 0.47356-7.6053 1.243-44.208 14.019-88.374 28.167-132.6 42.125-4.546 1.4351-8.0675 3.9302-11.581 6.9883-26.86 23.381-53.844 46.619-80.786 69.905-47.527 41.077-95.058 82.151-142.55 123.27-1.7004 1.4717-4.9608 2.749-3.7249 5.4596 1.5197 3.3324 4.6384 0.97294 6.897 0.43995 15.37-3.6229 30.695-7.4384 46.042-11.163 1.4549-0.35353 2.9584-0.50958 5.8527-0.99456-21.644 27.265-42.927 53.065-63.681 79.275 0.24069 0.49758 0.48258 0.99455 0.72386 1.4921 2.4405 0.32772 4.8743 0.87751 7.3226 0.94954 18.197 0.53239 36.397 0.96574 54.596 1.4465 1.527 0.0402 3.0509 0.20288 5.6036 0.37994-1.725 2.1722-2.842 3.7129-4.0935 5.1354-17.974 20.426-35.975 40.828-53.937 61.265-1.3469 1.533-2.4441 3.2844-3.2928 5.5358 8.2493 0.61402 15.926-1.3541 23.687-2.336 7.933-1.0042 15.835-2.2544 23.75-3.4014 7.717-1.1188 15.434-2.2346 23.149-3.3684 7.897-1.1608 15.792-2.3426 24.053-3.5695 0.66984 1.6248 1.3901 2.9951 1.8126 4.4524 6.7998 23.42 13.628 46.832 20.24 70.306 0.77247 2.7412 0.8631 5.9367 0.33191 8.7439-11.456 60.497-23.037 120.97-34.634 181.44003-0.61521 3.2087-0.53599 6.2206 0.32952 9.4317 11.647 43.235 23.175 86.502 34.75 129.76 0.34693 1.2965 0.87031 2.5449 1.4603 4.2465 1.7526-0.6218 3.2328-1.0371 4.6228-1.6566 30.5-13.589 60.969-27.25 91.511-40.742 3.4158-1.5089 7.1804-2.5599 10.884-3.0298 21.224-2.6944 42.487-5.0826 63.712-7.7734 2.4603-0.3115 4.8887-1.6236 7.1221-2.8534 32.054-17.659 64.097-35.341 96.068-53.152 3.6589-2.0384 7.1888-2.9363 11.385-2.5678 18.527 1.6284 37.103 2.749 55.607 4.5911 13.877 1.3817 27.565-0.3548 41.312-1.2971 13.567-0.9297 27.125-2.0311 40.665-3.2838 4.1829-0.3871 7.7302 0.4664 11.399 2.5113 31.793 17.718 63.689 35.253 95.497 52.945 3.5725 1.9879 7.1678 3.1055 11.252 3.5659 20.863 2.351 41.703 4.9067 62.52904 7.5735 2.9098 0.3727 5.8016 1.5077 8.5134 2.7123 30.7 13.633 61.362 27.349 92.037 41.037 1.0768 0.4802 2.177 0.9088 3.5815 1.4928 0.6986-1.132 1.5473-1.9987 1.8204-3.0203 11.574-43.251 23.058-86.527 34.691-129.76 1.069-3.9752 1.2118-7.6767 0.4315-11.72-11.508-59.67303-22.877-119.37003-34.351-179.05003-0.7365-3.8324-0.6771-7.4072 0.4333-11.196 6.6348-22.636 13.09-45.325 19.618-67.992 0.4904-1.7004 1.0894-3.3702 1.8223-5.6222" inkscape:connector-curvature="0"/><path d="m768.76 580.69c14.598 0 29.206-0.33312 43.789 0.14405 7.0123 0.22928 10.831-2.9512 13.362-8.7487 3.2778-7.5105 6.4769-15.056 9.7055-22.588 2.0473-4.7771 4.0436-9.5764 6.1408-14.331 1.9993-4.5316 1.3067-8.6857-1.9513-12.239-11.489-12.531-22.991-25.055-34.724-37.356-1.9477-2.0419-4.9254-3.4608-7.6905-4.2987-8.4108-2.5473-16.912-4.8353-25.465-6.8562-2.5965-0.61281-5.594-0.52338-8.2043 0.0978-8.3556 1.9891-16.603 4.4284-24.92 6.5892-3.6085 0.93753-6.5543 2.746-9.0782 5.4902-10.831 11.779-21.704 23.518-32.619 35.218-3.9596 4.2453-5.016 8.7241-2.5557 14.234 5.1336 11.498 9.9431 23.14 14.953 34.694 0.78748 1.8156 1.9093 3.4884 2.9008 5.2141 1.9897 3.4614 4.9494 4.7921 8.9678 4.7759 12.6-0.048 25.201 0.16205 37.802 0.25929 3.1961 0.0246 6.3923 4e-3 9.5878 4e-3v-0.30251" inkscape:connector-curvature="0"/><g transform="matrix(.61825 0 0 .61872 767.36 112.63)"><path d="m0 0c2.627 0.986 5.448 1.955 8.199 3.093 44.631 18.456 89.256 36.927 133.88 55.407 199.4 82.589 398.8 165.21 598.26 247.67 6.325 2.615 10.102 6.342 12.723 12.733 25.644 62.561 51.586 125 77.464 187.46 75.089 181.24 150.16 362.49 225.39 543.68 2.623 6.314 2.812 11.66 0.151 18.037-30.649 73.468-61.044 147.04-91.515 220.58-70.505 170.16-141.06 340.3-211.36 510.55-2.821 6.831-6.888 10.536-13.518 13.235-37.636 15.319-75.11 31.038-112.65 46.59-206.17 85.407-412.35 170.78-618.46 256.32-6.067 2.518-11.136 2.388-17.116-0.122-43.306-18.169-86.737-36.038-130.12-54.015-200.01-82.871-400-165.79-600.09-248.46-7.415-3.064-11.687-7.368-14.681-14.722-19.717-48.432-39.835-96.701-59.845-145.01-60.415-145.86-120.84-291.72-181.26-437.57-20.395-49.234-40.71-98.502-61.3-147.65-2.494-5.954-2.864-11.075-0.079-17 4.247-9.033 7.758-18.412 11.583-27.644 47.44-114.46 94.901-228.92 142.31-343.39 49.962-120.63 99.917-241.26 149.7-361.96 2.382-5.776 5.904-9.014 11.546-11.278 22.256-8.928 44.367-18.217 66.524-27.394 129.86-53.787 259.71-107.58 389.57-161.38 92.314-38.245 184.62-76.506 276.94-114.75 2.459-1.018 4.965-1.923 7.768-3.004m1204.4 1058.8c-1.987-5.696-3.396-10.477-5.292-15.057-47.378-114.49-94.809-228.96-142.23-343.43-65.9-159.09-131.88-318.16-197.52-477.35-4.678-11.344-11.621-18.397-22.935-23.074-273.34-112.99-546.61-226.17-819.77-339.59-11.71-4.862-21.863-4.639-33.462 0.176-272.87 113.26-545.82 226.32-818.87 339.15-11.67 4.822-18.88 11.955-23.708 23.636-112.97 273.35-226.17 546.6-339.58 819.77-4.719 11.368-4.537 21.246 0.153 32.545 113.52 273.48 226.81 547.06 339.96 820.7 4.386 10.607 11.008 17.287 21.678 21.698 274.26 113.39 548.44 226.96 822.54 340.74 11.142 4.625 20.685 3.641 31.543-0.867 271.94-112.89 543.99-225.52 816.02-338.2 1.539-0.638 3.032-1.419 4.617-1.904 10.693-3.275 16.962-10.465 21.157-20.836 17.108-42.301 34.754-84.385 52.219-126.54 95.739-231.1 191.49-462.19 287.18-693.31 2.515-6.075 4.307-12.449 6.286-18.246" fill="#17679a" inkscape:connector-curvature="0"/></g></g></svg>
