<svg version="1" xmlns="http://www.w3.org/2000/svg" width="933.333" height="933.333" viewBox="0 0 700.000000 700.000000"><path d="M329 1c-74 4.9-140.9 30.7-198.5 76.6-14.8 11.9-40.9 38.1-53.2 53.6C34.6 184.7 8.9 248.3 1.9 317.5c-1.5 15.4-1.5 49.6 0 65 12.5 124.1 85.9 229.3 197.4 283 106.3 51.2 234.8 44.1 335.4-18.4 35.1-21.8 69.7-53.3 94-85.6 79.3-105.5 93.2-245.9 35.9-364-17.5-36.1-36.6-63.3-64.6-91.8-57.6-59-130.3-94.3-212-103.1C370.2.7 344.5 0 329 1zm88.5 37c34.7 14.4 79.7 33.1 100 41.5 20.4 8.4 44.6 18.5 53.9 22.4 9.3 3.8 17.5 7.6 18.2 8.3.6.7 23.3 54.8 50.4 120.2 32.8 79.3 49 119.6 48.6 121-1.6 6.3-97.7 236.3-99.4 238.1-2.5 2.5-235.8 99.5-239.5 99.5-3.6 0-236.8-96.8-239.4-99.3C107.7 587 11 353.7 11 350c0-3.8 96.7-237 99.3-239.6 1.2-1.2 15.3-7.6 31.3-14.3 16.1-6.6 48.7-20.1 72.5-30 23.9-9.9 63.4-26.3 87.9-36.5 37.6-15.7 45.1-18.5 48.5-18.2 2.3.2 31.5 11.8 67 26.6z"/><path d="M297.5 72.6c-63.9 26.6-117.8 49-139 57.6-9.3 3.8-18 7.9-19.2 9.1-1.1 1.2-11.2 24.2-22.3 51.2-11.1 26.9-30.5 73.8-43.1 104.2L51 349.9l43.7 105.7 43.8 105.7 39 16.2c21.5 8.9 69 28.6 105.6 43.8l66.7 27.6 31.3-13c17.3-7.2 36.1-15 41.9-17.4 44.8-18.3 128.5-53.2 133-55.3l5.4-2.7 6.2-15c3.4-8.3 22.9-55.3 43.3-104.7 20.4-49.3 37.1-90.2 37.1-90.8 0-1.9-86-209.4-87.4-210.8-1.1-1.1-30.2-13.3-176.8-74.1-17.4-7.2-32.9-13.1-34.5-13-1.5 0-24.8 9.2-51.8 20.5zM456 162.8c0 .4-8.6 26.4-19.2 57.7l-19.1 57-.1 10-.1 10 29.8 69.5c16.5 38.2 30.1 70.1 30.4 70.7.4 1-13.7 1.3-68.6 1.3-38 0-69.1-.2-69.1-.5s2.3-5 5-10.5l5-10 21.5-10.8 21.5-10.7-21.5-10.8L350 375l-10.7-21.5-10.8-21.5-10.7 21.5L307 375l-21 10.5c-11.6 5.8-21 10.7-21 11 0 .3 9.4 5.2 21 11l21 10.5 5 10c2.7 5.5 5 10.2 5 10.5 0 .3-21.4.5-47.6.5-37.7 0-47.5-.3-47.1-1.3 6.2-15 76.5-171.5 78.9-175.4 4.1-6.9 15.2-19 22.1-24 4.8-3.5 130.3-76 132-76.2.4-.1.7.2.7.7zm60.1 299.9c4.4 2.6 5.1 5.6 4.7 21.3-.3 14.1-.3 14.2-3.1 16.6l-2.8 2.4H184.8l-2.9-2.9-2.9-2.9v-14.1c0-15.1.6-17.8 4.8-20.4 2.5-1.5 15.7-1.6 166-1.7 151.7 0 163.6.1 166.3 1.7z"/><path d="M355 257.2l-5.1 10.3-10.5 5.3c-5.8 2.9-10.3 5.6-10 6 .2.4 4.9 2.9 10.3 5.6l10 4.9 5.5 11.1 5.5 11.1 5.7-11.2 5.6-11.2 10.6-5.3 10.6-5.2-11-5.5-10.9-5.4-4.9-10c-2.7-5.4-5.2-10.1-5.7-10.4-.4-.2-3 4.2-5.7 9.9z"/></svg>